<svg width="1581" height="551" viewBox="0 0 1581 551" fill="none" xmlns="http://www.w3.org/2000/svg">
<path d="M916.5 135.5V66H988.5V185.5L916.5 135.5Z" fill="white"/>
<path d="M433 550.5V299.5L707.502 107.398L966 299.5V550.5H613.5L654.5 492.5L656 488V484.5L654.5 480L650.5 475L720 384L728 388H734.5H741L746 385.5L752.5 384H759L762.5 385.5L774.5 393L780.5 397.5L782 399L780.5 402.5L777.5 406.5L776 411.5L777.5 418L782 424L787 427.5L792.5 429.5L796.5 428.5H800L805.5 426.5L809 423L825 402.5L831.5 393L834.5 388V383L833 377.5L828.5 372L823.5 369L817.5 367.5L811 369L803 372L794.5 364L787 354L778 344L770 335.5L759 328L726.5 306.5L710.5 296.5L699 289L684 282.5L681.5 282H678.5L678 281H673.5V279.5H668.5L668 278.5H662V278H654.5H643L633.5 279.5L623 281.5L610 285L598.5 289L591 292L586.5 294.5L588 296.5L596.5 292H604.5H615.5L637 296.5L647.5 299.5L658.5 306.5L673.5 318L678 325L680.5 333V341L676 346.5L680.5 354L685.5 359.5L669.5 381L613.5 453L604.5 448.5L596.5 453L519.5 550.5H433Z" fill="white"/>
<path d="M709.5 106L707.502 107.398M707.502 107.398L433 299.5V550.5H519.5L596.5 453L604.5 448.5L613.5 453L669.5 381L685.5 359.5L680.5 354L676 346.5L680.5 341V333L678 325L673.5 318L658.5 306.5L647.5 299.5L637 296.5L615.5 292H604.5H596.5L588 296.5L586.5 294.5L591 292L598.5 289L610 285L623 281.5L633.5 279.5L643 278H654.5H662V278.5H668L668.5 279.5H673.5V281H678L678.5 282H681.5L684 282.5L699 289L710.5 296.5L726.5 306.5L759 328L770 335.5L778 344L787 354L794.5 364L803 372L811 369L817.5 367.5L823.5 369L828.5 372L833 377.5L834.5 383V388L831.5 393L825 402.5L809 423L805.5 426.5L800 428.5H796.5L792.5 429.5L787 427.5L782 424L777.5 418L776 411.5L777.5 406.5L780.5 402.5L782 399L780.5 397.5L774.5 393L762.5 385.5L759 384H752.5L746 385.5L741 388H734.5H728L720 384L650.5 475L654.5 480L656 484.5V488L654.5 492.5L613.5 550.5H966V299.5L707.502 107.398ZM916.5 66V135.5L988.5 185.5V66H916.5Z" stroke="white"/>
<path d="M335.5 278.5L709.5 1L1075.5 278.5L1068.5 283.5L1051 288.5L1032 290L1010 286L709.5 63.5L382 293.5L379.5 294H374.5V295.5H368H361.5L355.5 295L355 294L353.5 293.5H351H349.5H347.5V291.5H346.5H344.5V290H343.5H342.5V289H341.5L340.5 288.5V287.5L339 286H337.5L337 284.5H336V283L335 283.5V282L334 282.5V280L335.5 278.5Z" fill="white" stroke="white"/>
<path d="M22.7848 371.132C24.5608 371.134 26.109 370.919 27.4293 370.488C28.7496 370.033 29.8421 369.397 30.7067 368.582C31.5953 367.743 32.256 366.735 32.6889 365.559C33.1217 364.36 33.3387 363.028 33.3397 361.564C33.3407 360.172 33.1256 358.912 32.6945 357.783C32.2633 356.655 31.616 355.695 30.7525 354.902C29.8891 354.109 28.7975 353.509 27.4778 353.1C26.1581 352.667 24.5983 352.45 22.7983 352.448L15.5623 352.443L15.5488 371.127L22.7848 371.132ZM22.8037 344.96C26.2837 344.963 29.2954 345.373 31.8388 346.191C34.3822 347.009 36.4814 348.15 38.1363 349.615C39.7913 351.081 41.014 352.833 41.8045 354.874C42.6191 356.915 43.0255 359.147 43.0237 361.571C43.0219 364.091 42.6003 366.407 41.7587 368.518C40.9172 370.605 39.6559 372.404 37.9748 373.915C36.2938 375.426 34.1809 376.601 31.6363 377.439C29.1157 378.277 26.1634 378.695 22.7794 378.692L15.5434 378.687L15.5302 397.011L5.84621 397.004L5.88368 344.948L22.8037 344.96ZM60.1443 397.043L50.4243 397.036L50.4618 344.98L60.1818 344.987L60.1443 397.043ZM107.556 384.801C108.084 384.802 108.552 385.006 108.96 385.414L112.773 389.557C110.659 392.172 108.053 394.174 104.956 395.563C101.883 396.953 98.1869 397.647 93.8669 397.644C90.0029 397.641 86.5234 396.978 83.4283 395.656C80.3573 394.334 77.7306 392.496 75.5483 390.142C73.366 387.789 71.688 384.98 70.5144 381.715C69.3647 378.45 68.7913 374.885 68.7941 371.021C68.7969 367.109 69.4234 363.534 70.6738 360.295C71.9241 357.032 73.6781 354.225 75.9358 351.875C78.2175 349.524 80.9308 347.702 84.0758 346.408C87.2207 345.091 90.7012 344.433 94.5172 344.436C98.3092 344.439 101.669 345.065 104.596 346.315C107.547 347.565 110.054 349.199 112.116 351.217L108.873 355.714C108.681 356.002 108.429 356.254 108.117 356.47C107.828 356.686 107.42 356.793 106.892 356.793C106.532 356.793 106.16 356.696 105.777 356.504C105.393 356.288 104.973 356.035 104.517 355.747C104.061 355.435 103.534 355.098 102.934 354.738C102.334 354.378 101.638 354.053 100.846 353.765C100.055 353.452 99.1309 353.199 98.075 353.007C97.0432 352.79 95.8433 352.681 94.4753 352.68C92.1473 352.678 90.011 353.097 88.0664 353.935C86.1458 354.75 84.4889 355.949 83.0958 357.532C81.7026 359.091 80.6213 361.01 79.8516 363.289C79.082 365.545 78.6961 368.125 78.6941 371.029C78.6919 373.957 79.0981 376.561 79.9124 378.841C80.7508 381.122 81.8774 383.043 83.2923 384.604C84.7072 386.165 86.3743 387.366 88.2937 388.207C90.2131 389.025 92.2768 389.434 94.4848 389.436C95.8048 389.437 96.9929 389.366 98.049 389.223C99.1291 389.079 100.113 388.852 101.001 388.541C101.914 388.229 102.766 387.834 103.558 387.354C104.375 386.851 105.179 386.24 105.972 385.52C106.212 385.304 106.464 385.137 106.728 385.017C106.992 384.873 107.268 384.801 107.556 384.801ZM163.322 345.061L163.285 397.117L153.565 397.11L153.581 374.358L129.137 374.341L129.121 397.093L119.401 397.086L119.438 345.03L129.158 345.037L129.142 367.429L153.586 367.446L153.602 345.054L163.322 345.061ZM202.396 377.49L196.072 360.169C195.761 359.401 195.437 358.489 195.102 357.432C194.767 356.376 194.432 355.236 194.096 354.012C193.784 355.235 193.459 356.387 193.122 357.467C192.785 358.523 192.461 359.446 192.148 360.238L185.836 377.478L202.396 377.49ZM219.481 397.158L211.993 397.153C211.153 397.152 210.47 396.947 209.942 396.539C209.414 396.107 209.019 395.578 208.755 394.954L204.875 384.331L183.311 384.316L179.415 394.933C179.223 395.485 178.85 395.989 178.298 396.444C177.746 396.9 177.061 397.127 176.245 397.127L168.685 397.121L189.207 345.08L199.071 345.087L219.481 397.158ZM240.621 369.885C242.445 369.886 244.029 369.66 245.374 369.205C246.742 368.75 247.859 368.126 248.723 367.335C249.612 366.52 250.272 365.56 250.705 364.456C251.138 363.353 251.355 362.141 251.356 360.821C251.358 358.181 250.483 356.152 248.732 354.735C247.005 353.318 244.354 352.608 240.778 352.605L234.586 352.601L234.573 369.881L240.621 369.885ZM265.514 397.191L256.766 397.185C255.11 397.184 253.91 396.535 253.167 395.238L242.235 378.562C241.827 377.938 241.372 377.494 240.868 377.229C240.388 376.965 239.668 376.832 238.708 376.832L234.568 376.829L234.554 397.169L224.87 397.162L224.907 345.106L240.783 345.117C244.311 345.12 247.335 345.494 249.854 346.24C252.398 346.962 254.473 347.983 256.08 349.304C257.711 350.625 258.91 352.21 259.677 354.059C260.443 355.883 260.826 357.9 260.824 360.108C260.823 361.86 260.558 363.515 260.029 365.075C259.524 366.635 258.779 368.05 257.794 369.321C256.833 370.593 255.632 371.708 254.191 372.667C252.775 373.626 251.154 374.381 249.33 374.931C249.953 375.292 250.529 375.724 251.057 376.229C251.584 376.709 252.064 377.285 252.495 377.958L265.514 397.191ZM317.378 371.2C317.375 375.016 316.737 378.52 315.462 381.711C314.188 384.902 312.398 387.649 310.092 389.951C307.787 392.253 305.013 394.039 301.773 395.309C298.532 396.579 294.931 397.212 290.971 397.209L271.135 397.195L271.173 345.139L291.009 345.153C294.969 345.156 298.568 345.807 301.807 347.105C305.046 348.379 307.817 350.169 310.119 352.475C312.422 354.757 314.208 357.494 315.478 360.687C316.747 363.88 317.381 367.384 317.378 371.2ZM307.442 371.193C307.444 368.337 307.062 365.781 306.295 363.524C305.553 361.244 304.462 359.323 303.024 357.762C301.609 356.177 299.882 354.964 297.842 354.122C295.827 353.281 293.547 352.859 291.003 352.857L280.887 352.85L280.861 389.498L290.977 389.505C293.521 389.507 295.801 389.089 297.818 388.25C299.858 387.412 301.587 386.213 303.004 384.654C304.445 383.071 305.539 381.152 306.284 378.896C307.054 376.617 307.44 374.049 307.442 371.193ZM375.571 371.242C375.569 375.058 374.93 378.598 373.656 381.861C372.405 385.1 370.627 387.907 368.322 390.281C366.016 392.655 363.243 394.513 360.002 395.855C356.761 397.173 353.16 397.83 349.2 397.827C345.264 397.824 341.677 397.162 338.438 395.84C335.199 394.493 332.416 392.631 330.09 390.254C327.787 387.876 326.001 385.067 324.732 381.826C323.462 378.561 322.829 375.02 322.831 371.204C322.834 367.388 323.473 363.861 324.747 360.622C326.021 357.359 327.811 354.54 330.117 352.166C332.447 349.791 335.232 347.945 338.473 346.628C341.714 345.286 345.303 344.616 349.239 344.619C351.879 344.621 354.362 344.935 356.69 345.561C359.017 346.162 361.153 347.028 363.096 348.157C365.039 349.263 366.778 350.62 368.313 352.229C369.872 353.814 371.191 355.591 372.269 357.56C373.348 359.529 374.162 361.665 374.713 363.97C375.287 366.274 375.573 368.698 375.571 371.242ZM365.671 371.235C365.673 368.379 365.291 365.823 364.525 363.566C363.759 361.286 362.668 359.353 361.253 357.768C359.838 356.183 358.111 354.97 356.072 354.128C354.056 353.287 351.777 352.865 349.233 352.863C346.689 352.861 344.396 353.28 342.356 354.118C340.339 354.957 338.61 356.168 337.169 357.751C335.752 359.334 334.659 361.265 333.889 363.544C333.119 365.8 332.733 368.355 332.731 371.211C332.729 374.067 333.111 376.636 333.878 378.916C334.644 381.173 335.735 383.094 337.15 384.679C338.589 386.24 340.316 387.441 342.331 388.282C344.37 389.124 346.662 389.545 349.206 389.547C351.75 389.549 354.03 389.131 356.047 388.292C358.088 387.454 359.817 386.255 361.234 384.696C362.651 383.113 363.744 381.194 364.514 378.938C365.283 376.659 365.669 374.091 365.671 371.235Z" fill="white"/>
<path d="M1022.54 384.224C1023.07 384.224 1023.54 384.428 1023.95 384.836L1027.76 388.976C1025.65 391.592 1023.05 393.596 1019.95 394.988C1016.88 396.38 1013.18 397.076 1008.86 397.076C1005 397.076 1001.52 396.416 998.424 395.096C995.352 393.776 992.724 391.94 990.54 389.588C988.356 387.236 986.676 384.428 985.5 381.164C984.348 377.9 983.772 374.336 983.772 370.472C983.772 366.56 984.396 362.984 985.644 359.744C986.892 356.48 988.644 353.672 990.9 351.32C993.18 348.968 995.892 347.144 999.036 345.848C1002.18 344.528 1005.66 343.868 1009.48 343.868C1013.27 343.868 1016.63 344.492 1019.56 345.74C1022.51 346.988 1025.02 348.62 1027.08 350.636L1023.84 355.136C1023.65 355.424 1023.4 355.676 1023.08 355.892C1022.8 356.108 1022.39 356.216 1021.86 356.216C1021.5 356.216 1021.13 356.12 1020.74 355.928C1020.36 355.712 1019.94 355.46 1019.48 355.172C1019.03 354.86 1018.5 354.524 1017.9 354.164C1017.3 353.804 1016.6 353.48 1015.81 353.192C1015.02 352.88 1014.1 352.628 1013.04 352.436C1012.01 352.22 1010.81 352.112 1009.44 352.112C1007.11 352.112 1004.98 352.532 1003.03 353.372C1001.11 354.188 999.456 355.388 998.064 356.972C996.672 358.532 995.592 360.452 994.824 362.732C994.056 364.988 993.672 367.568 993.672 370.472C993.672 373.4 994.08 376.004 994.896 378.284C995.736 380.564 996.864 382.484 998.28 384.044C999.696 385.604 1001.36 386.804 1003.28 387.644C1005.2 388.46 1007.27 388.868 1009.48 388.868C1010.8 388.868 1011.98 388.796 1013.04 388.652C1014.12 388.508 1015.1 388.28 1015.99 387.968C1016.9 387.656 1017.76 387.26 1018.55 386.78C1019.36 386.276 1020.17 385.664 1020.96 384.944C1021.2 384.728 1021.45 384.56 1021.72 384.44C1021.98 384.296 1022.26 384.224 1022.54 384.224ZM1082.92 370.472C1082.92 374.288 1082.28 377.828 1081.01 381.092C1079.76 384.332 1077.98 387.14 1075.68 389.516C1073.38 391.892 1070.6 393.752 1067.36 395.096C1064.12 396.416 1060.52 397.076 1056.56 397.076C1052.63 397.076 1049.04 396.416 1045.8 395.096C1042.56 393.752 1039.78 391.892 1037.45 389.516C1035.14 387.14 1033.36 384.332 1032.08 381.092C1030.81 377.828 1030.18 374.288 1030.18 370.472C1030.18 366.656 1030.81 363.128 1032.08 359.888C1033.36 356.624 1035.14 353.804 1037.45 351.428C1039.78 349.052 1042.56 347.204 1045.8 345.884C1049.04 344.54 1052.63 343.868 1056.56 343.868C1059.2 343.868 1061.69 344.18 1064.02 344.804C1066.34 345.404 1068.48 346.268 1070.42 347.396C1072.37 348.5 1074.11 349.856 1075.64 351.464C1077.2 353.048 1078.52 354.824 1079.6 356.792C1080.68 358.76 1081.5 360.896 1082.05 363.2C1082.63 365.504 1082.92 367.928 1082.92 370.472ZM1073.02 370.472C1073.02 367.616 1072.63 365.06 1071.86 362.804C1071.1 360.524 1070 358.592 1068.59 357.008C1067.17 355.424 1065.44 354.212 1063.4 353.372C1061.39 352.532 1059.11 352.112 1056.56 352.112C1054.02 352.112 1051.73 352.532 1049.69 353.372C1047.67 354.212 1045.94 355.424 1044.5 357.008C1043.09 358.592 1042 360.524 1041.23 362.804C1040.46 365.06 1040.08 367.616 1040.08 370.472C1040.08 373.328 1040.46 375.896 1041.23 378.176C1042 380.432 1043.09 382.352 1044.5 383.936C1045.94 385.496 1047.67 386.696 1049.69 387.536C1051.73 388.376 1054.02 388.796 1056.56 388.796C1059.11 388.796 1061.39 388.376 1063.4 387.536C1065.44 386.696 1067.17 385.496 1068.59 383.936C1070 382.352 1071.1 380.432 1071.86 378.176C1072.63 375.896 1073.02 373.328 1073.02 370.472ZM1135.31 344.444V396.5H1130.34C1129.57 396.5 1128.92 396.38 1128.39 396.14C1127.89 395.876 1127.4 395.444 1126.92 394.844L1099.74 360.14C1099.88 361.724 1099.95 363.188 1099.95 364.532V396.5H1091.42V344.444H1096.5C1096.91 344.444 1097.25 344.468 1097.54 344.516C1097.85 344.54 1098.12 344.612 1098.33 344.732C1098.57 344.828 1098.8 344.984 1099.02 345.2C1099.23 345.392 1099.47 345.656 1099.74 345.992L1127.03 380.84C1126.95 380 1126.89 379.172 1126.85 378.356C1126.8 377.54 1126.77 376.784 1126.77 376.088V344.444H1135.31ZM1174.62 353.912C1174.33 354.416 1174.02 354.788 1173.68 355.028C1173.37 355.244 1172.97 355.352 1172.49 355.352C1171.99 355.352 1171.44 355.172 1170.84 354.812C1170.26 354.428 1169.57 354.008 1168.75 353.552C1167.93 353.096 1166.97 352.688 1165.87 352.328C1164.79 351.944 1163.51 351.752 1162.02 351.752C1160.67 351.752 1159.5 351.92 1158.49 352.256C1157.48 352.568 1156.63 353.012 1155.93 353.588C1155.26 354.164 1154.76 354.86 1154.42 355.676C1154.09 356.468 1153.92 357.344 1153.92 358.304C1153.92 359.528 1154.25 360.548 1154.93 361.364C1155.62 362.18 1156.53 362.876 1157.66 363.452C1158.79 364.028 1160.07 364.544 1161.51 365C1162.95 365.456 1164.43 365.948 1165.94 366.476C1167.45 366.98 1168.93 367.58 1170.37 368.276C1171.81 368.948 1173.09 369.812 1174.22 370.868C1175.35 371.9 1176.25 373.172 1176.92 374.684C1177.62 376.196 1177.97 378.032 1177.97 380.192C1177.97 382.544 1177.56 384.752 1176.74 386.816C1175.95 388.856 1174.77 390.644 1173.21 392.18C1171.68 393.692 1169.79 394.892 1167.56 395.78C1165.33 396.644 1162.77 397.076 1159.89 397.076C1158.24 397.076 1156.61 396.908 1155 396.572C1153.39 396.26 1151.84 395.804 1150.35 395.204C1148.89 394.604 1147.51 393.884 1146.21 393.044C1144.92 392.204 1143.77 391.268 1142.76 390.236L1145.6 385.592C1145.84 385.256 1146.15 384.98 1146.54 384.764C1146.92 384.524 1147.33 384.404 1147.76 384.404C1148.36 384.404 1149.01 384.656 1149.71 385.16C1150.4 385.64 1151.23 386.18 1152.19 386.78C1153.15 387.38 1154.27 387.932 1155.54 388.436C1156.83 388.916 1158.38 389.156 1160.18 389.156C1162.94 389.156 1165.08 388.508 1166.59 387.212C1168.1 385.892 1168.86 384.008 1168.86 381.56C1168.86 380.192 1168.51 379.076 1167.81 378.212C1167.14 377.348 1166.24 376.628 1165.11 376.052C1163.99 375.452 1162.7 374.948 1161.26 374.54C1159.82 374.132 1158.36 373.688 1156.87 373.208C1155.38 372.728 1153.92 372.152 1152.48 371.48C1151.04 370.808 1149.75 369.932 1148.63 368.852C1147.5 367.772 1146.59 366.428 1145.89 364.82C1145.22 363.188 1144.88 361.184 1144.88 358.808C1144.88 356.912 1145.25 355.064 1146 353.264C1146.77 351.464 1147.87 349.868 1149.31 348.476C1150.75 347.084 1152.53 345.968 1154.64 345.128C1156.75 344.288 1159.17 343.868 1161.91 343.868C1164.98 343.868 1167.81 344.348 1170.41 345.308C1173 346.268 1175.21 347.612 1177.03 349.34L1174.62 353.912ZM1222.77 352.4H1207.08V396.5H1197.39V352.4H1181.7V344.444H1222.77V352.4ZM1245.32 369.212C1247.14 369.212 1248.73 368.984 1250.07 368.528C1251.44 368.072 1252.55 367.448 1253.42 366.656C1254.31 365.84 1254.97 364.88 1255.4 363.776C1255.83 362.672 1256.05 361.46 1256.05 360.14C1256.05 357.5 1255.17 355.472 1253.42 354.056C1251.69 352.64 1249.04 351.932 1245.46 351.932H1239.27V369.212H1245.32ZM1270.23 396.5H1261.48C1259.83 396.5 1258.63 395.852 1257.88 394.556L1246.94 377.888C1246.53 377.264 1246.07 376.82 1245.57 376.556C1245.09 376.292 1244.37 376.16 1243.41 376.16H1239.27V396.5H1229.59V344.444H1245.46C1248.99 344.444 1252.01 344.816 1254.53 345.56C1257.08 346.28 1259.15 347.3 1260.76 348.62C1262.39 349.94 1263.59 351.524 1264.36 353.372C1265.13 355.196 1265.51 357.212 1265.51 359.42C1265.51 361.172 1265.25 362.828 1264.72 364.388C1264.22 365.948 1263.47 367.364 1262.49 368.636C1261.53 369.908 1260.33 371.024 1258.89 371.984C1257.47 372.944 1255.85 373.7 1254.03 374.252C1254.65 374.612 1255.23 375.044 1255.76 375.548C1256.29 376.028 1256.77 376.604 1257.2 377.276L1270.23 396.5ZM1296.38 388.688C1298.25 388.688 1299.92 388.376 1301.38 387.752C1302.87 387.128 1304.12 386.252 1305.13 385.124C1306.14 383.996 1306.9 382.628 1307.43 381.02C1307.98 379.412 1308.26 377.612 1308.26 375.62V344.444H1317.94V375.62C1317.94 378.716 1317.44 381.584 1316.43 384.224C1315.45 386.84 1314.02 389.108 1312.15 391.028C1310.3 392.924 1308.04 394.412 1305.38 395.492C1302.72 396.548 1299.72 397.076 1296.38 397.076C1293.02 397.076 1290.01 396.548 1287.34 395.492C1284.68 394.412 1282.41 392.924 1280.54 391.028C1278.69 389.108 1277.26 386.84 1276.26 384.224C1275.27 381.584 1274.78 378.716 1274.78 375.62V344.444H1284.46V375.584C1284.46 377.576 1284.73 379.376 1285.26 380.984C1285.81 382.592 1286.59 383.972 1287.6 385.124C1288.63 386.252 1289.88 387.128 1291.34 387.752C1292.83 388.376 1294.51 388.688 1296.38 388.688ZM1364.61 384.224C1365.14 384.224 1365.61 384.428 1366.02 384.836L1369.83 388.976C1367.72 391.592 1365.12 393.596 1362.02 394.988C1358.95 396.38 1355.25 397.076 1350.93 397.076C1347.07 397.076 1343.59 396.416 1340.49 395.096C1337.42 393.776 1334.79 391.94 1332.61 389.588C1330.43 387.236 1328.75 384.428 1327.57 381.164C1326.42 377.9 1325.84 374.336 1325.84 370.472C1325.84 366.56 1326.47 362.984 1327.71 359.744C1328.96 356.48 1330.71 353.672 1332.97 351.32C1335.25 348.968 1337.96 347.144 1341.11 345.848C1344.25 344.528 1347.73 343.868 1351.55 343.868C1355.34 343.868 1358.7 344.492 1361.63 345.74C1364.58 346.988 1367.09 348.62 1369.15 350.636L1365.91 355.136C1365.72 355.424 1365.47 355.676 1365.15 355.892C1364.87 356.108 1364.46 356.216 1363.93 356.216C1363.57 356.216 1363.2 356.12 1362.81 355.928C1362.43 355.712 1362.01 355.46 1361.55 355.172C1361.1 354.86 1360.57 354.524 1359.97 354.164C1359.37 353.804 1358.67 353.48 1357.88 353.192C1357.09 352.88 1356.17 352.628 1355.11 352.436C1354.08 352.22 1352.88 352.112 1351.51 352.112C1349.18 352.112 1347.05 352.532 1345.1 353.372C1343.18 354.188 1341.53 355.388 1340.13 356.972C1338.74 358.532 1337.66 360.452 1336.89 362.732C1336.13 364.988 1335.74 367.568 1335.74 370.472C1335.74 373.4 1336.15 376.004 1336.97 378.284C1337.81 380.564 1338.93 382.484 1340.35 384.044C1341.77 385.604 1343.43 386.804 1345.35 387.644C1347.27 388.46 1349.34 388.868 1351.55 388.868C1352.87 388.868 1354.05 388.796 1355.11 388.652C1356.19 388.508 1357.17 388.28 1358.06 387.968C1358.97 387.656 1359.83 387.26 1360.62 386.78C1361.43 386.276 1362.24 385.664 1363.03 384.944C1363.27 384.728 1363.52 384.56 1363.79 384.44C1364.05 384.296 1364.33 384.224 1364.61 384.224ZM1412.83 352.4H1397.13V396.5H1387.45V352.4H1371.75V344.444H1412.83V352.4ZM1429.36 396.5H1419.64V344.444H1429.36V396.5ZM1490.66 370.472C1490.66 374.288 1490.02 377.828 1488.75 381.092C1487.5 384.332 1485.73 387.14 1483.42 389.516C1481.12 391.892 1478.35 393.752 1475.11 395.096C1471.87 396.416 1468.27 397.076 1464.31 397.076C1460.37 397.076 1456.78 396.416 1453.54 395.096C1450.3 393.752 1447.52 391.892 1445.19 389.516C1442.89 387.14 1441.1 384.332 1439.83 381.092C1438.55 377.828 1437.92 374.288 1437.92 370.472C1437.92 366.656 1438.55 363.128 1439.83 359.888C1441.1 356.624 1442.89 353.804 1445.19 351.428C1447.52 349.052 1450.3 347.204 1453.54 345.884C1456.78 344.54 1460.37 343.868 1464.31 343.868C1466.95 343.868 1469.43 344.18 1471.76 344.804C1474.09 345.404 1476.22 346.268 1478.17 347.396C1480.11 348.5 1481.85 349.856 1483.39 351.464C1484.95 353.048 1486.27 354.824 1487.35 356.792C1488.43 358.76 1489.24 360.896 1489.79 363.2C1490.37 365.504 1490.66 367.928 1490.66 370.472ZM1480.76 370.472C1480.76 367.616 1480.37 365.06 1479.61 362.804C1478.84 360.524 1477.75 358.592 1476.33 357.008C1474.91 355.424 1473.19 354.212 1471.15 353.372C1469.13 352.532 1466.85 352.112 1464.31 352.112C1461.76 352.112 1459.47 352.532 1457.43 353.372C1455.41 354.212 1453.69 355.424 1452.25 357.008C1450.83 358.592 1449.74 360.524 1448.97 362.804C1448.2 365.06 1447.82 367.616 1447.82 370.472C1447.82 373.328 1448.2 375.896 1448.97 378.176C1449.74 380.432 1450.83 382.352 1452.25 383.936C1453.69 385.496 1455.41 386.696 1457.43 387.536C1459.47 388.376 1461.76 388.796 1464.31 388.796C1466.85 388.796 1469.13 388.376 1471.15 387.536C1473.19 386.696 1474.91 385.496 1476.33 383.936C1477.75 382.352 1478.84 380.432 1479.61 378.176C1480.37 375.896 1480.76 373.328 1480.76 370.472ZM1543.05 344.444V396.5H1538.08C1537.31 396.5 1536.66 396.38 1536.14 396.14C1535.63 395.876 1535.14 395.444 1534.66 394.844L1507.48 360.14C1507.62 361.724 1507.7 363.188 1507.7 364.532V396.5H1499.16V344.444H1504.24C1504.65 344.444 1505 344.468 1505.28 344.516C1505.6 344.54 1505.86 344.612 1506.08 344.732C1506.32 344.828 1506.54 344.984 1506.76 345.2C1506.98 345.392 1507.22 345.656 1507.48 345.992L1534.77 380.84C1534.7 380 1534.64 379.172 1534.59 378.356C1534.54 377.54 1534.52 376.784 1534.52 376.088V344.444H1543.05Z" fill="white"/>
</svg>
